<?xml version="1.0" encoding="UTF-8" standalone="no"?>
<svg
   xmlns:dc="http://purl.org/dc/elements/1.1/"
   xmlns:cc="http://creativecommons.org/ns#"
   xmlns:rdf="http://www.w3.org/1999/02/22-rdf-syntax-ns#"
   xmlns:svg="http://www.w3.org/2000/svg"
   xmlns="http://www.w3.org/2000/svg"
   xmlns:sodipodi="http://sodipodi.sourceforge.net/DTD/sodipodi-0.dtd"
   xmlns:inkscape="http://www.inkscape.org/namespaces/inkscape"
   id="bd9ea3a9-b4c9-40eb-b9f6-70e25d8cad06"
   data-name="Layer 1"
   width="767.45669"
   height="518.9454"
   viewBox="0 0 767.45669 518.9454"
   version="1.1"
   sodipodi:docname="diet-plan.svg"
   inkscape:version="1.0.1 (c497b03c, 2020-09-10)">
  <metadata
     id="metadata1029">
    <rdf:RDF>
      <cc:Work
         rdf:about="">
        <dc:format>image/svg+xml</dc:format>
        <dc:type
           rdf:resource="http://purl.org/dc/dcmitype/StillImage" />
      </cc:Work>
    </rdf:RDF>
  </metadata>
  <defs
     id="defs1027" />
  <sodipodi:namedview
     pagecolor="#ffffff"
     bordercolor="#666666"
     borderopacity="1"
     objecttolerance="10"
     gridtolerance="10"
     guidetolerance="10"
     inkscape:pageopacity="0"
     inkscape:pageshadow="2"
     inkscape:window-width="1680"
     inkscape:window-height="940"
     id="namedview1025"
     showgrid="false"
     inkscape:zoom="1.1218874"
     inkscape:cx="383.72833"
     inkscape:cy="259.47269"
     inkscape:window-x="0"
     inkscape:window-y="25"
     inkscape:window-maximized="0"
     inkscape:current-layer="bd9ea3a9-b4c9-40eb-b9f6-70e25d8cad06" />
  <title
     id="title958">diet</title>
  <ellipse
     cx="645.09055"
     cy="509.73343"
     rx="122.36614"
     ry="9.21197"
     fill="#e6e6e6"
     id="ellipse960" />
  <path
     d="M848.5961,327.8717,823.048,348.00889,768.91259,328.983s-18.4063-20.70326-28.81476-5.2831c-3.56469,5.28109,19.78367,15.03777,21.98638,15.94449,5.50677,2.2668,58.25833,31.20711,63.42758,27.41029S859.76524,344.054,859.76524,344.054Z"
     transform="translate(-216.27165 -190.5273)"
     fill="#a0616a"
     id="path998" />
  <path
     d="M935.80607,293.52018c-24.21353-9.04778-47.2472-13.32858-65.92215,0v-43.017a32.961,32.961,0,0,1,32.961-32.961h.00007a32.961,32.961,0,0,1,32.961,32.96105Z"
     transform="translate(-216.27165 -190.5273)"
     fill="#2f2e41"
     id="path1000"
     style="fill:#803300" />
  <path
     d="M874.9647,387.49148l-1.97859,13.85007s-4.94645,14.83936,0,42.5395l-79.6379,217.1493L852.211,677.8483l29.18407-118.71489,41.05557-90.52009-3.95716,102.88623L897.71838,681.31081l61.336-2.47322,17.87333-188.29338a166.79258,166.79258,0,0,0-14.94512-86.82478c-4.95829-10.53-10.28946-18.82906-15.12686-20.0337C932.34355,380.0718,874.9647,387.49148,874.9647,387.49148Z"
     transform="translate(-216.27165 -190.5273)"
     fill="#2f2e41"
     id="path1002"
     style="fill:#008080" />
  <path
     d="M800.76789,659.54642l-20.28045,21.76439s-39.077,20.28046-11.37685,22.75369,37.0984-8.409,37.0984-8.409,34.62518-2.47323,34.13053-7.41968-2.96787-21.26975-2.96787-21.26975Z"
     transform="translate(-216.27165 -190.5273)"
     fill="#2f2e41"
     id="path1004"
     style="fill:#aa4400" />
  <path
     d="M910.82648,664.7943v15.334s.49465,6.43039,0,7.91432-7.91432,19.78582,16.81794,15.82865,14.83936-19.29116,14.83936-19.29116l-5.93574-22.259Z"
     transform="translate(-216.27165 -190.5273)"
     fill="#2f2e41"
     id="path1006"
     style="fill:#aa4400" />
  <circle
     cx="686.26952"
     cy="65.26486"
     r="24.85593"
     fill="#a0616a"
     id="circle1008" />
  <path
     d="M919.7301,269.51857s-3.46252,32.64659,0,38.58233-35.11982-5.93574-35.11982-5.93574,8.409-22.259,5.4411-31.16266S919.7301,269.51857,919.7301,269.51857Z"
     transform="translate(-216.27165 -190.5273)"
     fill="#a0616a"
     id="path1010" />
  <path
     d="M939.51591,363.50118l7.91433,21.7644-73.70216,8.409s-7.91432-1.48394-7.91432-7.91433-8.409-29.18407-8.409-29.18407-20.5947-16.69242-30.48761-21.14423c-3.58618-1.61255,1.77837-.94665,4.79576-7.79252.90524-2.05775,1.98848-4.22922,3.17063-6.43039.96453-1.80547,2.00334-3.63566,3.06678-5.4411,1.29107-2.20118,2.62164-4.36773,3.91272-6.43039,3.90765-6.23747,7.474-11.48073,8.61668-13.60275,3.46252-6.43039,36.01516-7.00419,36.01516-7.00419,9.30914,5.85661,36.20306,7.00419,36.20306,7.00419s18.49969,7.74118,26.2063,13.60275C949.46316,309.758,939.51591,363.50118,939.51591,363.50118Z"
     transform="translate(-216.27165 -190.5273)"
     fill="#e6e6e6"
     id="path1012" />
  <path
     d="M923.5155,225.95361v-.59023l-.70153.039a32.98613,32.98613,0,0,0-28.34891-5.66484,32.84353,32.84353,0,0,1,12.65187,6.53687L883.29181,227.598l-10.05592,22.34649h6.80549l5.48508-10.05592v10.05592h23.01686l1.56428-7.82127,4.34519,7.82127H918.975c.028.55764.07119,1.11132.07119,1.67592l-4.4693,43.01707,21.22917-8.9386V251.62044A32.89189,32.89189,0,0,0,923.5155,225.95361Z"
     transform="translate(-216.27165 -190.5273)"
     fill="#2f2e41"
     id="path1014"
     style="fill:#803300" />
  <path
     d="M956.8285,339.75821l-1.48394,39.077-3.95716,75.68074s5.4411,32.64659-8.409,32.15194-3.46252-38.58233-3.46252-38.58233l-3.95716-59.85209,3.95716-42.04485Z"
     transform="translate(-216.27165 -190.5273)"
     fill="#a0616a"
     id="path1016" />
  <path
     d="M960.78566,361.028c0,4.4518-24.97959,3.21519-24.97959,3.21519L922.698,295.73477s18.49969,7.74118,26.2063,13.60275a23.23,23.23,0,0,1,4.38756,6.43039c.5886,1.58779,1.14749,3.42789,1.6768,5.4411.52435,1.99835,1.014,4.16985,1.474,6.43039A263.16223,263.16223,0,0,1,960.78566,361.028Z"
     transform="translate(-216.27165 -190.5273)"
     fill="#e6e6e6"
     id="path1018" />
</svg>
