<?xml version="1.0" encoding="UTF-8" standalone="no"?>
<svg
   xmlns:dc="http://purl.org/dc/elements/1.1/"
   xmlns:cc="http://creativecommons.org/ns#"
   xmlns:rdf="http://www.w3.org/1999/02/22-rdf-syntax-ns#"
   xmlns:svg="http://www.w3.org/2000/svg"
   xmlns="http://www.w3.org/2000/svg"
   xmlns:sodipodi="http://sodipodi.sourceforge.net/DTD/sodipodi-0.dtd"
   xmlns:inkscape="http://www.inkscape.org/namespaces/inkscape"
   id="Capa_1"
   enableBackground="new 0 0 512 512"
   height="512"
   viewBox="0 0 512 512"
   width="512"
   version="1.1"
   sodipodi:docname="diet.svg"
   inkscape:version="1.0.1 (c497b03c, 2020-09-10)">
  <metadata
     id="metadata1880">
    <rdf:RDF>
      <cc:Work
         rdf:about="">
        <dc:format>image/svg+xml</dc:format>
        <dc:type
           rdf:resource="http://purl.org/dc/dcmitype/StillImage" />
      </cc:Work>
    </rdf:RDF>
  </metadata>
  <defs
     id="defs1878" />
  <sodipodi:namedview
     pagecolor="#ffffff"
     bordercolor="#666666"
     borderopacity="1"
     objecttolerance="10"
     gridtolerance="10"
     guidetolerance="10"
     inkscape:pageopacity="0"
     inkscape:pageshadow="2"
     inkscape:window-width="1680"
     inkscape:window-height="940"
     id="namedview1876"
     showgrid="false"
     inkscape:zoom="1.3496094"
     inkscape:cx="256"
     inkscape:cy="256"
     inkscape:window-x="0"
     inkscape:window-y="25"
     inkscape:window-maximized="0"
     inkscape:current-layer="Capa_1"
     inkscape:document-rotation="0" />
  <g
     id="g1873"
     style="fill:#ffffff;fill-opacity:1">
    <path
       fill="current"
       d="m149.63 184.318h34.217c6.79 0 12.314-5.522 12.314-12.311v-34.185c0-6.789-5.524-12.311-12.314-12.311h-34.217c-6.791 0-12.315 5.522-12.315 12.311v34.185c0 6.789 5.525 12.311 12.315 12.311zm2.803-43.692h28.61v28.578h-28.61z"
       id="path1843"
       style="fill:#ffffff;fill-opacity:1" />
    <path
       fill="current"
       d="m149.63 262.535h34.217c6.79 0 12.314-5.523 12.314-12.312v-34.213c0-6.789-5.524-12.312-12.314-12.312h-34.217c-6.791 0-12.315 5.523-12.315 12.312v34.212c0 6.789 5.525 12.313 12.315 12.313zm2.803-43.723h28.61v28.607h-28.61z"
       id="path1845"
       style="fill:#ffffff;fill-opacity:1" />
    <path
       fill="current"
       d="m149.63 340.721h34.217c6.79 0 12.314-5.523 12.314-12.312v-34.184c0-6.789-5.524-12.312-12.314-12.312h-34.217c-6.791 0-12.315 5.523-12.315 12.312v34.184c0 6.789 5.525 12.312 12.315 12.312zm2.803-43.693h28.61v28.579h-28.61z"
       id="path1847"
       style="fill:#ffffff;fill-opacity:1" />
    <path
       fill="current"
       d="m276.397 147.462h46.598c4.175 0 7.559-3.383 7.559-7.557s-3.384-7.557-7.559-7.557h-46.598c-4.175 0-7.559 3.383-7.559 7.557s3.384 7.557 7.559 7.557z"
       id="path1849"
       style="fill:#ffffff;fill-opacity:1" />
    <path
       fill="current"
       d="m226.534 147.462h19.866c4.175 0 7.559-3.383 7.559-7.557s-3.384-7.557-7.559-7.557h-19.866c-4.175 0-7.559 3.383-7.559 7.557s3.384 7.557 7.559 7.557z"
       id="path1851"
       style="fill:#ffffff;fill-opacity:1" />
    <path
       fill="current"
       d="m226.534 177.454h96.46c4.175 0 7.559-3.383 7.559-7.557s-3.384-7.557-7.559-7.557h-96.46c-4.175 0-7.559 3.383-7.559 7.557s3.384 7.557 7.559 7.557z"
       id="path1853"
       style="fill:#ffffff;fill-opacity:1" />
    <path
       fill="current"
       d="m226.534 225.678h96.46c4.175 0 7.559-3.383 7.559-7.557s-3.384-7.557-7.559-7.557h-96.46c-4.175 0-7.559 3.383-7.559 7.557 0 4.173 3.384 7.557 7.559 7.557z"
       id="path1855"
       style="fill:#ffffff;fill-opacity:1" />
    <path
       fill="current"
       d="m226.534 382.08h30.362c4.174 0 7.559-3.383 7.559-7.557s-3.385-7.557-7.559-7.557h-30.362c-4.175 0-7.559 3.383-7.559 7.557s3.384 7.557 7.559 7.557z"
       id="path1857"
       style="fill:#ffffff;fill-opacity:1" />
    <path
       fill="current"
       d="m226.534 412.072h18.741c4.175 0 7.559-3.383 7.559-7.557s-3.384-7.557-7.559-7.557h-18.741c-4.175 0-7.559 3.383-7.559 7.557s3.384 7.557 7.559 7.557z"
       id="path1859"
       style="fill:#ffffff;fill-opacity:1" />
    <path
       fill="current"
       d="m226.534 255.669h46.598c4.175 0 7.559-3.383 7.559-7.557s-3.384-7.557-7.559-7.557h-46.598c-4.175 0-7.559 3.383-7.559 7.557s3.384 7.557 7.559 7.557z"
       id="path1861"
       style="fill:#ffffff;fill-opacity:1" />
    <path
       fill="current"
       d="m322.994 240.555h-19.866c-4.175 0-7.559 3.383-7.559 7.557s3.384 7.557 7.559 7.557h19.866c4.175 0 7.559-3.383 7.559-7.557s-3.384-7.557-7.559-7.557z"
       id="path1863"
       style="fill:#ffffff;fill-opacity:1" />
    <path
       fill="current"
       d="m226.534 303.864h96.46c4.175 0 7.559-3.383 7.559-7.557s-3.384-7.557-7.559-7.557h-96.46c-4.175 0-7.559 3.383-7.559 7.557s3.384 7.557 7.559 7.557z"
       id="path1865"
       style="fill:#ffffff;fill-opacity:1" />
    <path
       fill="current"
       d="m226.534 333.885h46.598c4.175 0 7.559-3.383 7.559-7.557s-3.384-7.557-7.559-7.557h-46.598c-4.175 0-7.559 3.383-7.559 7.557s3.384 7.557 7.559 7.557z"
       id="path1867"
       style="fill:#ffffff;fill-opacity:1" />
    <path
       fill="current"
       d="m322.994 318.77h-19.866c-4.175 0-7.559 3.383-7.559 7.557s3.384 7.557 7.559 7.557h19.866c4.175 0 7.559-3.383 7.559-7.557s-3.384-7.557-7.559-7.557z"
       id="path1869"
       style="fill:#ffffff;fill-opacity:1" />
    <path
       fill="current"
       d="m441.296 374.518c-5.348-7.817-14.858-16.267-31.481-19.09 7.248-14.944 9.119-32.139 5.193-49.428-.849-3.744-4.365-6.218-8.142-5.835v-82.101c0-4.174-3.384-7.557-7.559-7.557s-7.559 3.383-7.559 7.557v85.858c-7.637 2.723-14.652 6.568-20.845 11.413v-216.17c0-6.991-5.7-12.678-12.708-12.678h-40.277v-20.139h73.83v117.335c0 4.174 3.384 7.557 7.559 7.557s7.559-3.383 7.559-7.557v-119.997c0-6.867-5.587-12.453-12.455-12.453h-78.278c-2.098-3.387-5.838-5.654-10.107-5.654h-35.354v-10.111c.001-19.558-15.911-35.468-35.471-35.468s-35.473 15.91-35.473 35.468v10.112h-37.858c-4.279 0-8.027 2.268-10.13 5.654h-78.283c-6.868 0-12.455 5.586-12.455 12.453v415.413c0 6.867 5.587 12.453 12.455 12.453h226.493c4.379 6.163 9.548 11.769 15.871 15.542 5.48 3.271 11.418 4.904 17.776 4.904 7.119 0 14.766-2.049 22.877-6.144 5.844-2.943 5.844-2.944 11.684-.003 15.376 7.755 29.06 8.172 40.67 1.243 10.956-6.541 18.467-18.595 24.369-29.524 13.939-25.809 27.598-74.551 8.099-103.053zm-72.854-34.71c7.709-11.326 19.277-19.366 33.066-23.118 1.518 13.626-1.424 26.811-8.505 37.884-2.404.124-4.9.334-7.516.661-10.832 1.348-16.849 4.743-20.83 6.989-.799.45-1.754.989-2.323 1.243-.57-.253-1.525-.792-2.323-1.242-.142-.08-.293-.165-.441-.248 1.363-8.041 4.321-15.485 8.872-22.169zm-153.596-304.34c0-11.223 9.131-20.353 20.355-20.353s20.354 9.13 20.354 20.353v10.112h-40.709zm-49.778 25.226h137.734v31.449h-137.734zm-88.948 415.745v-410.091h73.83v20.139h-40.277c-7.007 0-12.708 5.687-12.708 12.678v84.518c0 4.174 3.384 7.557 7.559 7.557s7.559-3.383 7.559-7.557v-82.081h39.657c2.103 3.387 5.852 5.655 10.131 5.655h144.156c4.269 0 8.009-2.268 10.107-5.655h39.654v229.939c-5.106 7.563-8.636 15.86-10.545 24.76-1.845-.422-3.86-.789-6.088-1.066-32.433-4.052-48.235 8.242-55.782 19.268-12.205 17.829-11.428 43.595-5.724 66.711h-86.749v-62.077c0-7.007-5.701-12.706-12.708-12.706h-66.109v-148.367c0-4.174-3.384-7.557-7.559-7.557s-7.559 3.383-7.559 7.557v155.925c0 2.073.852 4.055 2.356 5.482l78.817 74.783c1.404 1.333 3.267 2.075 5.203 2.075h98.834c2.627 7.471 5.629 14.32 8.671 20.11zm99.662-94.893v49.635l-52.312-49.635zm244.113 88.843c-14.34 26.552-25.256 31.892-44.933 21.965-10.28-5.173-15.006-5.175-25.294.005-19.664 9.928-30.582 4.59-44.923-21.966-3.91-7.249-7.295-15.371-9.931-23.759-.022-.074-.045-.147-.069-.22-7.335-23.478-8.732-49.007 1.102-63.374 6.143-8.973 16.561-13.492 31.05-13.492 8.563 0 17.133 1.1 24.703 5.292 3.835 2.124 7.605 4.242 12.161 3.761 4.02-.425 7.31-2.77 10.807-4.569 4.005-2.06 8.327-3.242 12.788-3.798 19.988-2.495 33.937 1.819 41.462 12.818 13.379 19.555 5.969 59.762-8.923 87.337z"
       id="path1871"
       style="fill:#ffffff;fill-opacity:1" />
  </g>
</svg>
