<?xml version="1.0" encoding="UTF-8" standalone="no"?>
<svg
   xmlns:dc="http://purl.org/dc/elements/1.1/"
   xmlns:cc="http://creativecommons.org/ns#"
   xmlns:rdf="http://www.w3.org/1999/02/22-rdf-syntax-ns#"
   xmlns:svg="http://www.w3.org/2000/svg"
   xmlns="http://www.w3.org/2000/svg"
   xmlns:sodipodi="http://sodipodi.sourceforge.net/DTD/sodipodi-0.dtd"
   xmlns:inkscape="http://www.inkscape.org/namespaces/inkscape"
   viewBox="0 0 512 512"
   width="512"
   height="512"
   version="1.1"
   id="svg1934"
   sodipodi:docname="personal.svg"
   inkscape:version="1.0.1 (c497b03c, 2020-09-10)">
  <metadata
     id="metadata1940">
    <rdf:RDF>
      <cc:Work
         rdf:about="">
        <dc:format>image/svg+xml</dc:format>
        <dc:type
           rdf:resource="http://purl.org/dc/dcmitype/StillImage" />
      </cc:Work>
    </rdf:RDF>
  </metadata>
  <defs
     id="defs1938" />
  <sodipodi:namedview
     pagecolor="#ffffff"
     bordercolor="#666666"
     borderopacity="1"
     objecttolerance="10"
     gridtolerance="10"
     guidetolerance="10"
     inkscape:pageopacity="0"
     inkscape:pageshadow="2"
     inkscape:window-width="1680"
     inkscape:window-height="940"
     id="namedview1936"
     showgrid="false"
     inkscape:zoom="1.4042969"
     inkscape:cx="256"
     inkscape:cy="256"
     inkscape:window-x="0"
     inkscape:window-y="25"
     inkscape:window-maximized="0"
     inkscape:current-layer="svg1934"
     inkscape:document-rotation="0" />
  <g
     id="Outline"
     style="fill:#ffffff;fill-opacity:1">
    <rect
       x="296"
       y="432"
       width="16"
       height="64"
       id="rect1929"
       style="fill:#ffffff;fill-opacity:1" />
    <path
       d="M443.716,80a36.027,36.027,0,0,0-19.975,5.984q-.273-3.154-.834-6.235a48.433,48.433,0,0,0,35.357-20.038,41.482,41.482,0,0,0,5.166-38.456A8,8,0,0,0,455.915,16h-5.922c-16.327,0-31.379,7.584-40.264,20.289a43.551,43.551,0,0,0-4.855,9.019,66.3,66.3,0,0,0-17.3-12.463l-7.156,14.31a49.687,49.687,0,0,1,22.844,23.322,42.8,42.8,0,0,0,1.3,4.268,8,8,0,0,0,1.194,2.158,49.922,49.922,0,0,1,1.857,8.672A36.287,36.287,0,0,0,352,116.284a129.258,129.258,0,0,0,6.645,40.95l4.946,14.837a29.1,29.1,0,0,0,18.854,18.567l-13.819,66.335-30.241-55.831A47.947,47.947,0,0,0,296.18,176l-40.16,0,.089-29.08a47.054,47.054,0,0,0,11.271-17.265A48.067,48.067,0,0,0,312,160a8,8,0,0,0,8-8V72a48.055,48.055,0,0,0-48-48H252.9a56.276,56.276,0,0,0-66.2,6.116L197.3,42.1a40.334,40.334,0,0,1,67.034,30.23q0,4.134-.3,8.275c-16.548-18.224-23.138-31.047-23.209-31.186A8,8,0,0,0,227.4,48.034c-15.325,19.357-30.32,24.4-43.65,28.476q-.078-2.1-.078-4.177a40.106,40.106,0,0,1,6.949-22.641l-13.232-9a56.044,56.044,0,0,0-9.717,31.637c0,1.856.056,3.724.137,5.6A22.481,22.481,0,0,0,177.62,118.8c.047.2.089.4.139.6l1.192,4.882a47.215,47.215,0,0,0,12.93,22.636L191.97,176H154.4a47.932,47.932,0,0,0-36.443,16.764l-73.815,86.1a50.468,50.468,0,0,0,.812,66.593l61.1,67.891c.093.1,29.946,29.962,29.946,29.962V496h16V452.688A15.9,15.9,0,0,0,163.317,448l8.862-8.863L200,460v36h16V464h16v32h16V460l28.8-21.6-9.6-12.8L237.334,448H210.666l-27.059-20.294.519-.519a16.077,16.077,0,0,0,.247-22.365L172.117,392h117.99A56.16,56.16,0,0,1,296,417h16a72.2,72.2,0,0,0-9.486-35.734l-22.245-38.92,4.587-36.708a46.867,46.867,0,0,0,16.963-39.089l31.686,47.971a47.851,47.851,0,0,0,87.305-19.609l10.517-73.631L454.1,209.89a17.874,17.874,0,0,0,6.834-26.007,29.1,29.1,0,0,0,7.475-11.812l4.946-14.837A129.258,129.258,0,0,0,480,116.284,36.325,36.325,0,0,0,443.716,80ZM422.842,45.458c5.848-8.363,15.89-13.382,26.9-13.457a25.468,25.468,0,0,1-4.591,18.541c-5.848,8.363-15.89,13.382-26.9,13.457A25.468,25.468,0,0,1,422.842,45.458ZM304,72v70.988a32.076,32.076,0,0,1-23.846-27.895,22.473,22.473,0,0,0,.047-37.155c.081-1.869.132-3.738.132-5.605A56,56,0,0,0,270.088,40H272A32.036,32.036,0,0,1,304,72Zm-71.515-5.531A222.127,222.127,0,0,0,256,95.477c0,8.591-.444,16.613-2.488,24.983a30.27,30.27,0,0,1-59.021.013A78.784,78.784,0,0,1,192,101.509V90.7C203.692,86.964,218.056,81.272,232.485,66.469ZM174,96.5a6.554,6.554,0,0,1,.23-1.652,8,8,0,0,0,1.77.331v6c-.034-.033-.07-.061-.1-.094A6.427,6.427,0,0,1,174,96.5ZM224,160a45.836,45.836,0,0,0,16.078-2.91l-.058,18.872a15.99,15.99,0,0,0,11.695,15.44l-6.662,14.27a23.887,23.887,0,0,1-17.144,13,23.226,23.226,0,0,1-24.689-12.459L196.291,191.4a15.977,15.977,0,0,0,11.679-15.453l-.058-18.86A45.826,45.826,0,0,0,224,160ZM147.794,282a47.127,47.127,0,0,0,15.349,23.638l4.588,36.707-4.54,7.942c-.322-.016-.646-.027-.971-.027a19.483,19.483,0,0,0-7.291,1.416l-.152.063-15.517,6.605-39.4-45.965,46.406-47.059A46.994,46.994,0,0,0,147.794,282ZM152,436.683l-34.192-34.192L56.846,334.757a34.468,34.468,0,0,1-.553-45.481l73.812-86.1A31.954,31.954,0,0,1,154.4,192h11.91l-7.74,40.146a7.972,7.972,0,0,0-4.266,2.237l-71,72a8,8,0,0,0-.378,10.824l48,56a8,8,0,0,0,9.207,2.154l20.815-8.86a3.334,3.334,0,0,1,2.8.13,3.381,3.381,0,0,1,1.8,2.119,3.479,3.479,0,0,1-1.879,4.114l-12.023,5.542a8,8,0,0,0-2.432,12.792l23.6,24.675ZM281.074,376H232V344H216v32H180.6a19.171,19.171,0,0,0-3.172-18.383l5.514-9.647a7.992,7.992,0,0,0,.993-4.962l-3.833-30.675H267.9l-3.833,30.675a7.992,7.992,0,0,0,.993,4.962Zm3.717-98.285a30.663,30.663,0,0,1-14.457,18.618H177.666A31.064,31.064,0,0,1,166.9,252.769L171.821,245a8.015,8.015,0,0,0,1.1-2.768l8.606-44.639,7.247,15.5c.031.064.061.127.092.189a39.148,39.148,0,0,0,41.673,21.172,39.928,39.928,0,0,0,28.87-21.719c.032-.064.064-.128.094-.193l6.974-14.938,8.6,44.628a8.015,8.015,0,0,0,1.1,2.768l4.922,7.766A30.7,30.7,0,0,1,284.791,277.715ZM446.11,192a1.9,1.9,0,0,1,1.89,1.89,1.894,1.894,0,0,1-1.049,1.685l-26.53,13.27a8,8,0,0,0-4.341,6.024l-11.109,77.775A31.856,31.856,0,0,1,346.854,305.7l-48.509-73.44a7.867,7.867,0,0,0-9.483-3.061L281.69,192h14.49a31.96,31.96,0,0,1,28.135,16.76l40.651,75.05a8,8,0,0,0,14.866-2.178L398.505,192Zm12.066-39.826-4.947,14.837a13.145,13.145,0,0,1-21.765,5.139,21.895,21.895,0,0,0-30.927,0,13.145,13.145,0,0,1-21.766-5.138l-4.947-14.837A113.283,113.283,0,0,1,368,116.284a20.284,20.284,0,0,1,34.627-14.343l7.716,7.716a8,8,0,0,0,11.314,0l7.715-7.716A20.285,20.285,0,0,1,464,116.284,113.283,113.283,0,0,1,458.176,152.174Z"
       id="path1931"
       style="fill:#ffffff;fill-opacity:1" />
  </g>
</svg>
