<?xml version="1.0" standalone="no"?>
<!DOCTYPE svg PUBLIC "-//W3C//DTD SVG 20010904//EN"
 "http://www.w3.org/TR/2001/REC-SVG-20010904/DTD/svg10.dtd">
<svg version="1.0" xmlns="http://www.w3.org/2000/svg"
 width="330.000000pt" height="330.000000pt" viewBox="0 0 330.000000 330.000000"
 preserveAspectRatio="xMidYMid meet">
<metadata>
Created by potrace 1.11, written by Peter Selinger 2001-2013
</metadata>
<g transform="translate(0.000000,330.000000) scale(0.100000,-0.100000)"
fill="#000000" stroke="none">
<path d="M857 3104 c-1 -1 -27 -4 -57 -7 -245 -25 -486 -196 -590 -420 -60
-128 -70 -253 -31 -378 25 -78 54 -119 84 -119 19 0 26 12 47 83 13 45 45 123
70 172 89 179 200 291 345 350 46 19 42 15 -42 -49 -87 -65 -142 -121 -195
-196 -156 -221 -164 -465 -22 -681 47 -71 89 -100 133 -92 40 7 47 18 49 75
12 319 50 439 183 579 113 117 300 217 456 244 58 9 200 -34 232 -70 20 -24
24 -25 44 -12 29 19 34 76 10 105 -10 12 -66 44 -126 70 l-107 48 -34 70 c-18
38 -45 84 -61 102 -44 52 -161 104 -267 117 -61 8 -117 12 -121 9z m-207 -111
c0 -5 -44 -37 -96 -72 -120 -80 -212 -165 -275 -255 -27 -38 -49 -67 -49 -64
0 15 55 126 80 162 60 88 162 175 253 216 43 20 87 26 87 13z"/>
<path d="M2365 3095 c-139 -26 -266 -89 -375 -185 l-35 -32 30 7 c17 4 55 19
87 35 69 35 210 86 270 97 23 4 104 8 178 8 120 -1 144 -4 211 -27 112 -40
195 -92 279 -177 89 -91 141 -176 177 -291 23 -72 27 -103 27 -200 0 -177 -40
-298 -142 -433 -29 -37 -52 -70 -52 -72 0 -2 11 -16 24 -30 l24 -26 33 36 c84
88 155 231 183 365 19 93 16 260 -8 348 -26 98 -92 234 -141 289 -146 165
-268 240 -470 290 -46 11 -235 10 -300 -2z"/>
<path d="M2363 2969 c-222 -69 -277 -375 -93 -515 43 -32 133 -75 220 -104
279 -95 449 -239 484 -412 l12 -61 36 43 c127 148 180 390 127 580 -33 119
-83 205 -174 296 -64 65 -97 89 -165 122 -145 70 -319 90 -447 51z m266 -138
c21 -13 4 -48 -29 -60 -28 -9 -30 -8 -30 14 0 22 23 55 38 55 4 0 13 -4 21 -9z
m-251 -188 c3 -19 -29 -53 -50 -53 -13 0 -9 55 4 68 18 18 43 10 46 -15z m350
-59 c3 -23 -13 -40 -42 -46 -24 -4 -29 23 -9 52 18 26 47 22 51 -6z m270 -45
c4 -21 -24 -49 -49 -49 -21 0 -25 21 -8 51 12 24 52 22 57 -2z m-85 -240 c6
-22 -19 -51 -48 -55 -20 -3 -20 40 1 60 21 22 41 20 47 -5z"/>
<path d="M1898 2802 c-58 -21 -103 -61 -123 -108 -25 -61 -19 -69 25 -34 46
37 50 30 15 -23 -32 -46 -16 -49 44 -9 57 39 80 78 97 170 5 26 3 26 -58 4z"/>
<path d="M2036 2677 c-7 -40 -42 -107 -67 -128 -20 -17 -25 -39 -10 -39 16 0
59 51 80 95 28 60 35 105 17 105 -8 0 -16 -14 -20 -33z"/>
<path d="M1357 2590 c-40 -12 -94 -56 -113 -91 -22 -43 -28 -112 -13 -156 l12
-38 18 40 c24 54 45 77 101 109 48 27 78 59 78 84 0 13 -70 -29 -119 -72 -23
-20 -23 -20 -13 -1 12 23 30 39 95 84 26 18 45 36 42 42 -7 11 -49 10 -88 -1z"/>
<path d="M1624 2554 c-132 -27 -245 -116 -304 -240 -65 -135 -49 -314 38 -429
83 -110 196 -173 326 -181 178 -11 333 81 414 244 30 62 36 86 40 155 13 252
-155 439 -413 461 -22 1 -67 -3 -101 -10z m-37 -210 c21 -32 9 -71 -27 -92
-17 -9 -30 -25 -30 -34 0 -23 -30 -39 -52 -27 -20 11 -24 39 -7 56 8 8 9 20 1
40 -25 74 72 122 115 57z"/>
<path d="M1033 2384 c-21 -21 -25 -32 -20 -66 12 -86 118 -103 155 -25 40 84
-68 157 -135 91z"/>
<path d="M2228 2286 c-78 -76 -70 -214 17 -280 l33 -26 -10 37 c-11 42 -4 93
22 143 22 42 31 93 20 110 -10 16 -24 -9 -50 -88 -12 -36 -19 -48 -19 -32 0
14 9 50 20 80 11 30 23 63 26 73 9 28 -21 20 -59 -17z"/>
<path d="M65 2278 c-4 -18 -21 -64 -37 -102 -25 -57 -29 -78 -25 -126 6 -79
38 -139 104 -200 59 -54 77 -59 46 -13 -29 42 -41 75 -47 129 l-6 49 15 -45
c15 -47 92 -138 105 -123 32 36 33 201 1 284 -20 52 -120 179 -141 179 -5 0
-11 -15 -15 -32z"/>
<path d="M882 2245 c-62 -52 -28 -145 52 -145 74 0 112 95 57 144 -33 30 -74
30 -109 1z"/>
<path d="M2467 2232 c-107 -39 -161 -114 -160 -222 2 -173 142 -304 324 -302
189 2 308 196 225 366 -68 138 -245 210 -389 158z m224 -52 c133 -67 190 -202
133 -315 -74 -148 -272 -169 -399 -42 -78 79 -96 175 -50 270 49 104 199 145
316 87z"/>
<path d="M2539 2165 c-96 -24 -152 -95 -151 -192 1 -172 218 -276 360 -174 57
40 89 130 70 200 -32 118 -162 196 -279 166z m149 -77 c63 -38 84 -132 46
-200 -25 -43 -95 -79 -142 -73 -67 9 -130 67 -135 124 -1 23 -12 27 -23 10
-10 -17 -22 2 -30 48 -5 35 -3 44 11 49 10 4 26 2 36 -4 15 -10 20 -8 28 7 13
24 58 53 96 61 38 9 71 3 113 -22z"/>
<path d="M2549 2082 c-48 -25 -73 -65 -73 -117 0 -80 74 -143 151 -129 48 9
102 61 105 101 0 15 2 35 3 43 1 8 -4 26 -11 40 -32 66 -112 94 -175 62z m61
-16 c0 -8 -4 -18 -10 -21 -5 -3 -10 3 -10 14 0 12 5 21 10 21 6 0 10 -6 10
-14z m-50 -30 c0 -5 -7 -3 -15 4 -8 7 -12 17 -9 22 7 10 24 -9 24 -26z m100
25 c0 -6 -4 -13 -10 -16 -5 -3 -10 1 -10 9 0 9 5 16 10 16 6 0 10 -4 10 -9z
m45 -41 c-3 -5 -13 -10 -21 -10 -8 0 -12 5 -9 10 3 6 13 10 21 10 8 0 12 -4 9
-10z m-180 -10 c3 -5 -1 -10 -9 -10 -9 0 -16 5 -16 10 0 6 4 10 9 10 6 0 13
-4 16 -10z m195 -40 c0 -5 -7 -10 -15 -10 -8 0 -15 5 -15 10 0 6 7 10 15 10 8
0 15 -4 15 -10z m-200 -10 c0 -5 -7 -10 -15 -10 -8 0 -15 5 -15 10 0 6 7 10
15 10 8 0 15 -4 15 -10z m190 -40 c0 -5 -7 -10 -15 -10 -8 0 -15 5 -15 10 0 6
7 10 15 10 8 0 15 -4 15 -10z m-175 -10 c-3 -5 -13 -10 -21 -10 -8 0 -12 5 -9
10 3 6 13 10 21 10 8 0 12 -4 9 -10z m135 -36 c0 -8 -4 -12 -10 -9 -5 3 -10
13 -10 21 0 8 5 12 10 9 6 -3 10 -13 10 -21z m-104 -11 c-10 -10 -19 5 -10 18
6 11 8 11 12 0 2 -7 1 -15 -2 -18z m54 2 c0 -8 -4 -15 -10 -15 -5 0 -10 7 -10
15 0 8 5 15 10 15 6 0 10 -7 10 -15z"/>
<path d="M1120 2213 c-33 -12 -60 -47 -60 -78 0 -63 59 -104 116 -80 68 28 66
123 -2 151 -19 8 -35 14 -36 13 -2 0 -10 -3 -18 -6z"/>
<path d="M753 2122 c-31 -5 -63 -49 -63 -87 0 -92 145 -105 164 -15 12 61 -40
113 -101 102z"/>
<path d="M931 2053 c-65 -54 -24 -159 58 -149 70 9 100 82 54 136 -29 35 -78
41 -112 13z"/>
<path d="M1138 2000 c-31 -24 -39 -59 -22 -98 26 -62 108 -68 144 -10 23 38
17 76 -16 106 -31 27 -73 28 -106 2z"/>
<path d="M3251 1934 c-68 -77 -107 -168 -125 -295 -3 -20 -8 -43 -12 -52 -20
-52 94 71 145 157 14 23 28 44 33 47 5 3 7 48 6 99 l-3 94 -44 -50z"/>
<path d="M809 1834 c-46 -38 -88 -91 -106 -135 -10 -22 -16 -179 -8 -179 2 0
22 30 45 68 l41 67 -6 -50 c-3 -27 -8 -63 -11 -80 -6 -28 -5 -29 12 -15 63 51
102 122 107 199 4 54 -9 139 -23 154 -4 4 -27 -8 -51 -29z"/>
<path d="M275 1823 c-56 -14 -71 -74 -58 -234 11 -132 27 -171 76 -177 31 -4
32 -1 11 39 -8 17 -13 36 -11 42 2 7 11 -4 19 -23 8 -20 23 -43 32 -53 16 -16
15 -17 -28 -17 -25 0 -46 -3 -46 -7 0 -16 91 -45 120 -39 17 3 32 1 36 -6 4
-7 12 -2 20 13 l13 24 2 -25 c1 -14 1 -34 1 -45 -1 -31 7 -50 18 -39 14 14 19
61 10 93 -10 35 0 41 48 30 24 -5 32 -3 32 6 0 8 -5 17 -11 20 -7 5 -4 15 9
29 19 20 75 146 68 153 -5 5 -53 -49 -88 -97 l-33 -45 -3 36 c-2 25 -15 49
-43 80 -21 24 -39 48 -39 53 0 5 -3 7 -6 3 -3 -3 2 -29 11 -57 18 -55 15 -118
-6 -131 -18 -11 -70 8 -99 36 -14 14 -31 25 -38 25 -7 0 -12 10 -12 21 0 19 4
18 41 -15 95 -87 128 -62 97 74 -10 44 -9 53 5 67 16 16 17 16 17 -5 0 -13 16
-39 36 -60 20 -20 43 -50 50 -67 7 -16 13 -24 14 -17 0 7 14 33 30 57 24 35
28 48 21 67 -12 31 -40 62 -71 78 -14 7 -47 29 -75 50 -39 30 -136 75 -148 69
-1 -1 -11 -4 -22 -6z m130 -82 c3 -5 1 -12 -5 -16 -5 -3 -10 1 -10 9 0 18 6
21 15 7z m-95 -22 c0 -5 -4 -9 -10 -9 -5 0 -10 7 -10 16 0 8 5 12 10 9 6 -3
10 -10 10 -16z m60 -75 c0 -8 -4 -12 -10 -9 -5 3 -10 10 -10 16 0 5 5 9 10 9
6 0 10 -7 10 -16z m165 -12 c-8 -8 -25 10 -19 20 4 6 9 5 15 -3 4 -7 6 -15 4
-17z m-240 -2 c3 -5 2 -10 -4 -10 -5 0 -13 5 -16 10 -3 6 -2 10 4 10 5 0 13
-4 16 -10z m92 -76 c-9 -9 -28 6 -21 18 4 6 10 6 17 -1 6 -6 8 -13 4 -17z
m-127 -24 c0 -5 -4 -10 -10 -10 -5 0 -10 5 -10 10 0 6 5 10 10 10 6 0 10 -4
10 -10z"/>
<path d="M2830 1773 c0 -5 18 -17 40 -27 50 -24 52 -37 3 -25 -64 15 -70 11
-36 -22 44 -45 119 -68 184 -58 28 5 54 11 57 14 11 10 -55 80 -98 102 -42 22
-150 33 -150 16z"/>
<path d="M3253 1697 c-24 -45 -63 -104 -87 -132 -24 -27 -43 -52 -41 -54 9 -8
94 51 133 93 40 44 42 48 42 111 0 36 -1 65 -2 65 -2 0 -22 -37 -45 -83z"/>
<path d="M1090 1761 c-14 -5 -41 -16 -60 -26 l-35 -18 54 -13 c76 -20 145 -73
188 -145 18 -31 89 -79 115 -79 28 0 10 28 -77 116 -68 68 -71 73 -35 53 43
-24 129 -109 149 -146 13 -25 31 -29 48 -12 15 15 -4 94 -33 140 -68 108 -203
163 -314 130z"/>
<path d="M2074 1689 c-136 -25 -155 -33 -150 -61 3 -13 5 -26 5 -30 1 -4 22 2
49 13 61 27 104 21 197 -25 116 -57 200 -162 237 -295 10 -36 18 -85 18 -108
0 -39 2 -43 25 -43 22 0 25 4 25 33 0 146 -77 302 -193 390 -40 31 -154 87
-177 88 -8 0 -4 5 10 11 44 18 266 14 350 -6 80 -20 174 -63 227 -103 26 -20
38 -23 58 -16 l27 9 -49 34 c-59 43 -76 52 -149 80 -136 50 -332 62 -510 29z"/>
<path d="M2832 1599 c-25 -16 -30 -24 -20 -31 21 -14 -33 -51 -111 -76 -84
-27 -104 -48 -107 -111 -6 -133 130 -267 269 -264 155 4 262 145 229 302 -32
150 -165 242 -260 180z m-94 -172 c18 -14 15 -55 -7 -74 -11 -9 -17 -21 -15
-28 3 -6 -2 -18 -11 -25 -22 -18 -47 4 -39 35 3 13 1 26 -5 29 -18 12 -12 54
10 70 21 14 42 12 67 -7z"/>
<path d="M949 1580 c-19 -10 -62 -46 -94 -80 -66 -68 -92 -84 -169 -107 -66
-20 -120 -59 -141 -103 -59 -121 15 -315 156 -409 105 -70 301 -119 366 -92
15 6 38 27 50 46 18 27 35 38 78 50 34 10 62 26 75 42 51 65 78 277 50 385
-51 191 -246 332 -371 268z m-235 -376 c7 -28 -15 -74 -35 -74 -8 0 -8 -5 1
-15 14 -17 5 -51 -15 -59 -8 -3 -24 3 -36 13 -17 14 -20 21 -12 36 8 14 7 22
-7 34 -36 31 -26 94 18 109 36 12 78 -9 86 -44z"/>
<path d="M1629 1587 c-122 -46 -181 -124 -193 -257 -19 -204 -45 -303 -129
-480 -75 -158 -69 -320 18 -455 132 -207 401 -275 609 -155 217 124 292 391
175 622 -75 148 -108 275 -124 467 -9 111 -61 193 -148 237 -59 31 -157 40
-208 21z m142 -575 c100 -39 214 -263 205 -402 -7 -93 -67 -184 -152 -226 -54
-26 -174 -26 -227 0 -161 80 -196 261 -92 465 76 148 165 202 266 163z"/>
<path d="M1665 946 c-101 -43 -192 -260 -155 -371 46 -141 226 -190 337 -92
91 80 95 226 10 360 -31 47 -88 106 -105 108 -4 0 -18 2 -32 4 -14 2 -39 -3
-55 -9z"/>
<path d="M2053 1423 c-4 -16 -7 -60 -7 -99 0 -85 24 -141 85 -199 l42 -40 -8
45 c-4 25 -9 57 -11 73 -3 15 -3 27 0 27 2 0 23 -29 45 -65 41 -64 41 -66 26
-96 -25 -48 -29 -119 -11 -182 55 -190 263 -254 409 -126 69 59 101 223 59
305 -39 76 -72 91 -155 69 -91 -23 -152 -24 -143 0 9 25 -85 20 -114 -5 -13
-11 -24 -20 -26 -20 -1 0 -2 28 -2 63 -1 79 -6 99 -36 152 -28 46 -110 125
-132 125 -8 0 -17 -12 -21 -27z m312 -397 c8 -25 6 -31 -16 -50 -14 -11 -29
-29 -32 -38 -7 -20 -42 -24 -52 -8 -4 6 -3 19 1 28 4 9 6 30 5 45 -3 39 16 59
53 55 23 -2 33 -10 41 -32z"/>
<path d="M1205 812 c-5 -5 -32 -17 -60 -27 -27 -10 -58 -26 -69 -34 -32 -28
-56 -87 -55 -138 l0 -48 18 40 c10 22 26 47 37 55 17 14 17 14 1 -10 -16 -22
-24 -90 -12 -90 4 0 19 7 34 15 43 22 97 90 111 139 13 49 10 112 -5 98z"/>
<path d="M2240 761 c0 -7 -10 -33 -22 -59 -12 -26 -22 -60 -23 -77 -3 -37 19
-92 47 -122 27 -29 42 -30 27 -2 -6 12 -13 36 -16 53 -4 29 -3 28 19 -13 13
-25 29 -46 34 -48 16 -5 33 63 28 113 -2 25 -13 62 -23 82 -21 41 -71 92 -71
73z"/>
</g>
</svg>
